<svg version="1.2" xmlns="http://www.w3.org/2000/svg" viewBox="0 0 512 512" width="512" height="512">
	<title>pierre-svg</title>
	<style>
		.s0 { fill: #000000 } 
	</style>
	<path id="Layer" class="s0" d="m512 142v130c0 41.6-20.5 80.8-54.9 107.9v108.1c0 13.3-14.2 24-28.4 24c-14.2 0-26.4-10.7-26.4-24v-132.3c32.5-16.4 54.8-47.6 54.8-83.7v-130c0-14.3-13.6-26-28.1-26l-17.2 0.2q-0.3 0-0.5 0c-23.3 0-15-28.2-44.2-28.2h-15.5c-11.4 0-13.3 5.6-22.7 5.6c-18.7 0-15.2-19.6-39.2-19.6h-15.4c-13.4 0-19.1 10.8-19.6 11.9c-2.7 6.1-9.5 10.1-16.8 10.1c-9.4 0-18.5-6.4-18.5-16v-16c0-8.8-8.2-16-18.3-16h-18.2c-10.1 0-18.3 7.2-18.3 16v144c0 8.8-8.3 16-18.3 16c-10.1 0-18.3-7.2-18.3-16v-44.2l-20 15.7c-10.5 7.6-16.6 19.1-16.6 31.4v79c0 14.7 8.9 28.3 23.1 35.2l63.7 31.4c1.5 0.7 3.2 0.9 4.7 1.6v129.9c0 13.3-14.3 24-28.5 24c-14.2 0-26.4-10.7-26.4-24v-101.1l-40.4-19.9c-31.5-15.5-51-45-51-77.1v-79c0-26.3 12.9-50.9 35.4-67.6l37.7-29.6v-49.7c0-35.4 32.8-64 73.2-64h18.2c24.7 0 46.6 10.7 59.8 27.1q6.6-1.1 13.4-1.1h15.4c18.4 0 35.8 5.3 49.9 14.8q6-0.8 12-0.8h15.5c25.7 0 49.4 10.6 63.9 28c45.3 1.4 81 34.1 81 74z" />
</svg>